<?xml version="1.0" standalone="no"?>
<!DOCTYPE svg PUBLIC "-//W3C//DTD SVG 20010904//EN"
 "http://www.w3.org/TR/2001/REC-SVG-20010904/DTD/svg10.dtd">
<svg version="1.0" xmlns="http://www.w3.org/2000/svg"
 width="200.000000pt" height="200.000000pt" viewBox="0 0 200.000000 200.000000"
 preserveAspectRatio="xMidYMid meet">

<g transform="translate(0.000000,200.000000) scale(0.100000,-0.100000)"
fill="#000000" stroke="none">
<path d="M100 1535 c0 -9 9 -15 25 -15 25 0 25 -1 25 -79 0 -74 -2 -80 -22
-83 -12 -2 -23 -9 -26 -15 -5 -18 213 -18 248 0 34 17 40 69 10 90 -17 12 -18
16 -6 20 8 3 19 21 25 39 8 28 9 29 10 9 1 -14 -5 -32 -13 -40 -13 -14 -12
-19 5 -40 10 -13 19 -19 19 -14 0 5 -5 14 -12 21 -9 9 -9 17 1 35 14 27 12 58
-4 59 -5 0 -19 7 -30 14 -29 21 -255 20 -255 -1z m228 -42 c4 -28 -29 -43 -94
-43 -44 0 -44 0 -44 35 l0 36 68 -3 c61 -3 67 -5 70 -25z m-4 -79 c35 -34 8
-54 -71 -54 l-63 0 0 35 0 35 59 0 c41 0 65 -5 75 -16z"/>
<path d="M201 1488 c1 -17 3 -18 6 -6 3 12 18 18 51 21 l47 3 -52 2 c-49 2
-53 0 -52 -20z"/>
<path d="M204 1405 c-3 -8 -4 -20 -1 -27 3 -7 6 -3 6 9 1 19 8 22 49 26 l47 3
-48 2 c-34 1 -49 -2 -53 -13z"/>
<path d="M118 1503 c7 -3 16 -2 19 1 4 3 -2 6 -13 5 -11 0 -14 -3 -6 -6z"/>
<path d="M563 1495 c-18 -8 -33 -10 -33 -5 0 6 -18 10 -40 10 -29 0 -40 -4
-40 -15 0 -8 9 -15 20 -15 18 0 20 -7 20 -60 0 -53 -2 -60 -20 -60 -11 0 -20
-4 -20 -10 0 -6 32 -10 75 -10 74 0 105 16 43 22 -29 3 -33 7 -36 34 -4 42 30
84 69 84 22 0 29 5 29 20 0 24 -21 25 -67 5z"/>
<path d="M741 1492 c-21 -10 -40 -30 -47 -48 -28 -68 47 -135 132 -120 97 19
117 135 29 172 -45 18 -73 18 -114 -4z m109 -32 c27 -27 26 -75 -2 -94 -51
-36 -118 -8 -118 49 0 59 77 88 120 45z"/>
<path d="M762 1454 c-12 -8 -22 -20 -22 -26 0 -7 6 -4 13 5 6 10 26 21 42 26
21 7 24 10 10 10 -11 1 -31 -6 -43 -15z"/>
<path d="M1031 1498 c-38 -20 -48 -44 -29 -65 9 -10 16 -22 15 -28 0 -5 8 -11
19 -12 18 -3 18 -2 -1 6 -29 14 1 14 65 0 39 -8 50 -15 48 -27 -4 -23 -70 -28
-110 -8 -44 22 -58 20 -58 -9 0 -22 4 -25 33 -24 17 1 48 -2 67 -6 52 -10 110
16 110 49 0 30 -24 45 -99 60 -30 6 -56 16 -58 23 -7 19 47 28 81 14 62 -25
66 -25 66 3 0 19 -5 26 -19 26 -10 0 -38 2 -62 5 -27 4 -53 1 -68 -7z"/>
<path d="M641 1478 c-1 -13 -9 -18 -28 -18 -16 0 -35 -4 -42 -9 -10 -6 1 -8
30 -4 52 7 52 7 46 30 -4 16 -5 16 -6 1z"/>
<path d="M1073 1463 c9 -2 23 -2 30 0 6 3 -1 5 -18 5 -16 0 -22 -2 -12 -5z"/>
<path d="M1350 1453 c141 -5 140 -4 140 -133 0 -69 -4 -110 -12 -118 -12 -12
-143 -17 -172 -6 -13 5 -16 26 -18 118 l-2 111 -3 -100 c-3 -76 -8 -104 -21
-118 -16 -18 -17 -13 -22 104 l-6 124 -2 -140 c-1 -99 2 -145 10 -153 17 -17
279 -17 296 0 8 8 12 56 12 149 0 112 -3 141 -16 153 -13 13 -39 16 -147 14
-114 -2 -119 -3 -37 -5z"/>
<path d="M1168 1433 c6 -2 18 -2 25 0 6 3 1 5 -13 5 -14 0 -19 -2 -12 -5z"/>
<path d="M541 1384 c0 -11 3 -14 6 -6 3 7 2 16 -1 19 -3 4 -6 -2 -5 -13z"/>
<path d="M908 1362 l-17 -37 19 24 c11 13 20 29 20 37 0 21 -3 17 -22 -24z"/>
<path d="M1078 1383 c6 -2 18 -2 25 0 6 3 1 5 -13 5 -14 0 -19 -2 -12 -5z"/>
<path d="M1202 1370 c0 -14 2 -19 5 -12 2 6 2 18 0 25 -3 6 -5 1 -5 -13z"/>
<path d="M382 1352 c-11 -25 -11 -25 4 -10 9 9 15 21 13 27 -2 6 -10 -2 -17
-17z"/>
<path d="M1348 1349 c-3 -8 -2 -34 2 -59 7 -44 8 -45 9 -8 0 20 6 38 11 40 7
2 6 10 -3 22 -11 15 -15 16 -19 5z"/>
<path d="M610 1330 c0 -5 -33 -11 -72 -13 l-73 -3 78 -2 c63 -2 77 1 77 13 0
8 -2 15 -5 15 -3 0 -5 -4 -5 -10z"/>
<path d="M1170 1325 c-14 -8 -20 -14 -14 -15 5 0 19 7 30 15 24 18 16 19 -16
0z"/>
<path d="M173 1313 c32 -2 81 -2 110 0 29 2 3 3 -58 3 -60 0 -84 -1 -52 -3z"/>
<path d="M1013 1313 c9 -2 25 -2 35 0 9 3 1 5 -18 5 -19 0 -27 -2 -17 -5z"/>
<path d="M793 1303 c9 -2 23 -2 30 0 6 3 -1 5 -18 5 -16 0 -22 -2 -12 -5z"/>
<path d="M1093 1303 c9 -2 23 -2 30 0 6 3 -1 5 -18 5 -16 0 -22 -2 -12 -5z"/>
<path d="M585 1069 c-38 -33 -71 -69 -73 -80 -3 -17 3 -19 77 -19 74 0 81 -2
81 -20 0 -16 -7 -20 -30 -20 -47 0 -40 -30 8 -31 l37 -2 -35 -7 c-26 -5 -13
-8 52 -9 82 -1 86 0 81 20 -4 12 -17 22 -34 26 -20 4 -29 12 -29 24 0 15 7 19
36 19 28 0 35 3 32 18 -2 13 -11 16 -36 14 l-32 -4 0 66 0 66 -32 -1 c-25 0
-50 -15 -103 -60z m85 -24 l0 -45 -52 0 -53 1 50 44 c27 25 51 45 52 45 2 0 3
-20 3 -45z m83 -152 c-13 -2 -33 -2 -45 0 -13 2 -3 4 22 4 25 0 35 -2 23 -4z"/>
<path d="M609 1023 c-13 -16 -12 -17 4 -4 9 7 17 15 17 17 0 8 -8 3 -21 -13z"/>
<path d="M733 1070 c0 -30 2 -43 4 -27 2 15 2 39 0 55 -2 15 -4 2 -4 -28z"/>
<path d="M1349 960 c-7 -53 -2 -65 17 -49 9 7 11 16 5 23 -5 6 -11 25 -13 41
-3 26 -5 23 -9 -15z"/>
<path d="M800 975 c0 -10 -11 -15 -35 -15 -19 0 -35 -3 -35 -8 0 -4 18 -6 40
-4 31 3 40 8 40 23 0 10 -2 19 -5 19 -3 0 -5 -7 -5 -15z"/>
<path d="M990 960 c-13 -9 -13 -11 0 -20 18 -11 39 5 24 20 -6 6 -15 6 -24 0z"/>
<path d="M1725 960 c-9 -15 4 -30 20 -23 8 3 15 9 15 13 0 12 -29 20 -35 10z"/>
<path d="M553 953 c20 -2 54 -2 75 0 20 2 3 4 -38 4 -41 0 -58 -2 -37 -4z"/>
<path d="M520 720 c0 -15 7 -20 25 -20 18 0 25 5 25 20 0 15 -7 20 -25 20 -18
0 -25 -5 -25 -20z"/>
<path d="M721 704 c-12 -15 -21 -37 -21 -50 0 -17 -6 -24 -20 -24 -11 0 -20
-7 -20 -15 0 -8 9 -15 20 -15 17 0 20 -7 20 -50 0 -43 -3 -50 -20 -50 -11 0
-20 -7 -20 -15 0 -12 14 -15 70 -15 56 0 70 3 70 15 0 10 -10 15 -30 15 -29 0
-30 1 -30 50 l0 50 46 0 c59 0 55 24 -4 28 -36 3 -42 6 -42 26 0 12 5 27 12
34 15 15 50 16 65 1 6 -6 18 -9 27 -7 15 3 15 5 1 26 -24 34 -96 31 -124 -4z"/>
<path d="M582 700 c0 -14 2 -19 5 -12 2 6 2 18 0 25 -3 6 -5 1 -5 -13z"/>
<path d="M152 688 c3 -7 14 -14 26 -16 21 -3 22 -9 22 -88 0 -77 -2 -84 -20
-84 -11 0 -20 -7 -20 -15 0 -13 19 -15 128 -13 l127 3 0 40 c0 29 -4 41 -17
43 -12 2 -17 -5 -20 -25 -3 -27 -5 -28 -65 -31 l-63 -3 0 86 c0 84 0 85 25 85
16 0 25 6 25 15 0 12 -15 15 -76 15 -56 0 -75 -3 -72 -12z"/>
<path d="M310 675 c0 -9 -9 -15 -25 -15 -25 0 -25 -1 -23 -72 l2 -73 3 68 c4
64 5 67 28 67 18 0 25 5 25 20 0 11 -2 20 -5 20 -3 0 -5 -7 -5 -15z"/>
<path d="M766 681 c-4 -5 3 -7 14 -4 23 6 26 13 6 13 -8 0 -17 -4 -20 -9z"/>
<path d="M870 681 c0 -5 -10 -12 -22 -14 -20 -4 -19 -4 5 -6 18 -1 27 4 27 14
0 8 -2 15 -5 15 -3 0 -5 -4 -5 -9z"/>
<path d="M973 653 c-39 -8 -73 -52 -73 -93 0 -57 43 -90 115 -90 58 0 108 17
102 34 -2 6 -13 9 -23 7 -74 -13 -116 -12 -135 5 -10 9 -19 21 -19 25 0 5 42
10 93 11 l93 3 -8 32 c-13 51 -78 81 -145 66z m95 -50 c21 -29 14 -33 -58 -33
-68 0 -77 4 -62 26 24 36 95 40 120 7z"/>
<path d="M970 600 c-8 -5 -12 -12 -9 -15 4 -3 12 1 19 10 14 17 11 19 -10 5z"/>
<path d="M480 635 c0 -9 9 -15 25 -15 24 0 25 -3 25 -60 0 -57 -1 -60 -25 -60
-16 0 -25 -6 -25 -15 0 -12 14 -15 65 -15 51 0 65 3 65 15 0 8 -9 15 -20 15
-18 0 -20 7 -20 75 l0 75 -45 0 c-33 0 -45 -4 -45 -15z"/>
<path d="M583 575 c0 -38 2 -53 4 -32 2 20 2 52 0 70 -2 17 -4 1 -4 -38z"/>
<path d="M1127 599 c4 -13 8 -18 11 -10 2 7 -1 18 -6 23 -8 8 -9 4 -5 -13z"/>
<path d="M840 601 c0 -6 -19 -11 -42 -13 -42 -3 -43 -4 -44 -38 -1 -35 -1 -35
3 -2 4 31 6 32 49 32 32 0 44 4 44 15 0 8 -2 15 -5 15 -3 0 -5 -4 -5 -9z"/>
<path d="M1140 555 c0 -11 -19 -15 -92 -17 -83 -3 -89 -4 -73 -18 11 -9 16
-10 11 -2 -5 9 13 12 78 12 79 0 86 2 86 20 0 11 -2 20 -5 20 -3 0 -5 -7 -5
-15z"/>
<path d="M430 500 l0 -39 -132 -4 -133 -3 138 -2 137 -2 0 45 c0 25 -2 45 -5
45 -3 0 -5 -18 -5 -40z"/>
<path d="M620 475 c0 -10 -16 -15 -62 -18 l-63 -3 68 -2 c61 -2 67 0 67 18 0
11 -2 20 -5 20 -3 0 -5 -7 -5 -15z"/>
<path d="M1100 470 c-9 -6 -10 -10 -3 -10 6 0 15 5 18 10 8 12 4 12 -15 0z"/>
<path d="M708 453 c23 -2 59 -2 80 0 20 2 1 4 -43 4 -44 0 -61 -2 -37 -4z"/>
<path d="M968 453 c7 -3 16 -2 19 1 4 3 -2 6 -13 5 -11 0 -14 -3 -6 -6z"/>
<path d="M1048 453 c6 -2 18 -2 25 0 6 3 1 5 -13 5 -14 0 -19 -2 -12 -5z"/>
</g>
</svg>
